<?xml version="1.0" encoding="utf-8"?>
<!-- Generator: Avocode 2.4.5 - http://avocode.com -->
<svg height="9" width="14" xmlns:xlink="http://www.w3.org/1999/xlink" xmlns="http://www.w3.org/2000/svg" viewBox="0 0 14 9">
    <path fill="#a1c8fc" fill-rule="evenodd" d="M 14 4 C 14 4 14 5 14 5 C 14 5 2 5 2 5 C 2 5 2 6 2 6 C 2 6 1 6 1 6 C 1 6 1 5 1 5 C 1 5 0 5 0 5 C 0 5 0 4 0 4 C 0 4 1 4 1 4 C 1 4 1 3 1 3 C 1 3 2 3 2 3 C 2 3 2 4 2 4 C 2 4 14 4 14 4 Z M 3 7 C 3 7 2 7 2 7 C 2 7 2 6 2 6 C 2 6 3 6 3 6 C 3 6 3 7 3 7 Z M 4 8 C 4 8 3 8 3 8 C 3 8 3 7 3 7 C 3 7 4 7 4 7 C 4 7 4 8 4 8 Z M 5 9 C 5 9 4 9 4 9 C 4 9 4 8 4 8 C 4 8 5 8 5 8 C 5 8 5 9 5 9 Z M 3 2 C 3 2 3 3 3 3 C 3 3 2 3 2 3 C 2 3 2 2 2 2 C 2 2 3 2 3 2 Z M 4 1 C 4 1 4 2 4 2 C 4 2 3 2 3 2 C 3 2 3 1 3 1 C 3 1 4 1 4 1 Z M 5 0 C 5 0 5 1 5 1 C 5 1 4 1 4 1 C 4 1 4 0 4 0 C 4 0 5 0 5 0 Z" />
</svg>