<?xml version="1.0" encoding="utf-8"?>
<!-- Generator: Avocode 2.4.5 - http://avocode.com -->
<svg height="11" width="12" xmlns:xlink="http://www.w3.org/1999/xlink" xmlns="http://www.w3.org/2000/svg" viewBox="0 0 12 11">
    <path fill="#bbcde6" fill-rule="evenodd" d="M 0 11 C 0 11 0 10 0 10 C 0 10 12 10 12 10 C 12 10 12 11 12 11 C 12 11 0 11 0 11 Z M 9 2.79 C 9 2.79 9 7 9 7 C 9 7 4.79 7 4.79 7 C 4.79 7 9 2.79 9 2.79 Z M 1.99 1.39 C 1.99 1.39 3.39 -0.01 3.39 -0.01 C 3.39 -0.01 7.59 4.19 7.59 4.19 C 7.59 4.19 6.19 5.59 6.19 5.59 C 6.19 5.59 1.99 1.39 1.99 1.39 Z" />
</svg>