<?xml version="1.0" encoding="utf-8"?>
<!-- Generator: Avocode 2.4.5 - http://avocode.com -->
<svg height="10" width="12" xmlns:xlink="http://www.w3.org/1999/xlink" xmlns="http://www.w3.org/2000/svg" viewBox="0 0 12 10">
    <path fill="#bbcde6" fill-rule="evenodd" d="M 0 10 C 0 10 0 9 0 9 C 0 9 12 9 12 9 C 12 9 12 10 12 10 C 12 10 0 10 0 10 Z M 7.59 2.81 C 7.59 2.81 7.59 2.81 7.59 2.81 C 7.59 2.81 4.79 0 4.79 0 C 4.79 0 9 0 9 0 C 9 0 9 4.21 9 4.21 C 9 4.21 7.59 2.81 7.59 2.81 C 7.59 2.81 7.59 2.81 7.59 2.81 Z M 3.39 7.01 C 3.39 7.01 1.99 5.61 1.99 5.61 C 1.99 5.61 6.19 1.41 6.19 1.41 C 6.19 1.41 7.59 2.81 7.59 2.81 C 7.59 2.81 7.59 2.81 7.59 2.81 C 7.59 2.81 3.39 7.01 3.39 7.01 Z" />
</svg>