<?xml version="1.0" encoding="utf-8"?>
<!-- Generator: Avocode 2.4.5 - http://avocode.com -->
<svg height="15" width="15" xmlns:xlink="http://www.w3.org/1999/xlink" xmlns="http://www.w3.org/2000/svg" viewBox="0 0 15 15">
    <path fill="#bbcde6" fill-rule="evenodd" d="M 7.5 15 C 3.36 15 0 11.64 0 7.5 C 0 3.36 3.36 0 7.5 0 C 11.64 0 15 3.36 15 7.5 C 15 11.64 11.64 15 7.5 15 Z M 7.5 1 C 3.91 1 1 3.91 1 7.5 C 1 11.09 3.91 14 7.5 14 C 11.09 14 14 11.09 14 7.5 C 14 3.91 11.09 1 7.5 1 Z" />
    <path fill="#ff4cc2" fill-rule="evenodd" d="M 6.48 6.36 C 6.5 5.56 6.86 5.17 7.56 5.17 C 7.83 5.17 8.05 5.24 8.21 5.38 C 8.38 5.52 8.46 5.7 8.46 5.94 C 8.46 6.05 8.45 6.15 8.41 6.25 C 8.38 6.35 8.32 6.44 8.24 6.53 C 8.15 6.62 8.08 6.69 8.02 6.74 C 7.96 6.8 7.86 6.87 7.73 6.96 C 7.59 7.06 7.5 7.12 7.45 7.16 C 7.3 7.27 7.18 7.38 7.09 7.49 C 6.99 7.6 6.91 7.7 6.86 7.79 C 6.8 7.88 6.76 8 6.74 8.13 C 6.71 8.26 6.69 8.38 6.69 8.49 C 6.68 8.6 6.68 8.75 6.68 8.93 C 6.68 8.93 8.15 8.93 8.15 8.93 C 8.15 8.6 8.19 8.36 8.28 8.21 C 8.37 8.06 8.57 7.89 8.87 7.69 C 9.11 7.54 9.3 7.38 9.46 7.23 C 9.62 7.08 9.75 6.89 9.85 6.68 C 9.96 6.46 10.01 6.22 10.01 5.96 C 10.01 5.38 9.79 4.9 9.34 4.54 C 8.9 4.18 8.31 4 7.59 4 C 6.79 4 6.17 4.21 5.74 4.63 C 5.3 5.05 5.06 5.62 5.01 6.36 C 5.01 6.36 6.48 6.36 6.48 6.36 Z M 8.25 10.99 C 8.25 10.99 8.25 9.52 8.25 9.52 C 8.25 9.52 6.64 9.52 6.64 9.52 C 6.64 9.52 6.64 10.99 6.64 10.99 C 6.64 10.99 8.25 10.99 8.25 10.99 Z" />
</svg>