<?xml version="1.0" encoding="utf-8"?>
<!-- Generator: Avocode 2.4.5 - http://avocode.com -->
<svg height="34" width="16" xmlns:xlink="http://www.w3.org/1999/xlink" xmlns="http://www.w3.org/2000/svg" viewBox="0 0 16 34">
    <path fill="#bbcde6" fill-rule="evenodd" d="M 14 34 C 14 34 2 34 2 34 C 0.9 34 0 33.11 0 32 C 0 32 0 2 0 2 C 0 0.89 0.9 0 2 0 C 2 0 14 0 14 0 C 15.1 0 16 0.89 16 2 C 16 2 16 32 16 32 C 16 33.11 15.1 34 14 34 Z M 14 10 C 14 10 2 10 2 10 C 2 10 2 32 2 32 C 2 32 14 32 14 32 C 14 32 14 10 14 10 Z M 8 12 C 9.66 12 11 13.34 11 15 C 11 16.66 9.66 18 8 18 C 6.34 18 5 16.66 5 15 C 5 13.34 6.34 12 8 12 Z M 6 20 C 6 20 7.5 20 7.5 20 C 7.5 20 8.5 20 8.5 20 C 8.5 20 10 20 10 20 C 10.55 20 11 20.45 11 21 C 11 21 11 25.5 11 25.5 C 11 26.05 10.55 26.5 10 26.5 C 10 26.5 9.5 26.5 9.5 26.5 C 9.5 26.5 9.5 29 9.5 29 C 9.5 29.55 9.05 30 8.5 30 C 8.5 30 7.5 30 7.5 30 C 6.95 30 6.5 29.55 6.5 29 C 6.5 29 6.5 26.5 6.5 26.5 C 6.5 26.5 6 26.5 6 26.5 C 5.45 26.5 5 26.05 5 25.5 C 5 25.5 5 21 5 21 C 5 20.45 5.45 20 6 20 Z" />
</svg>