<?xml version="1.0" encoding="utf-8"?>
<!-- Generator: Avocode 2.4.5 - http://avocode.com -->
<svg height="34" width="12" xmlns:xlink="http://www.w3.org/1999/xlink" xmlns="http://www.w3.org/2000/svg" viewBox="0 0 12 34">
    <path fill="#bbcde6" fill-rule="evenodd" d="M 10 27 C 10 27 9 27 9 27 C 9 27 9 32 9 32 C 9 33.1 8.1 34 7 34 C 7 34 5 34 5 34 C 3.9 34 3 33.1 3 32 C 3 32 3 27 3 27 C 3 27 2 27 2 27 C 0.9 27 0 26.1 0 25 C 0 25 0 16 0 16 C 0 14.9 0.9 14 2 14 C 2 14 5 14 5 14 C 5 14 7 14 7 14 C 7 14 10 14 10 14 C 11.1 14 12 14.9 12 16 C 12 16 12 25 12 25 C 12 26.1 11.1 27 10 27 Z M 10 16 C 10 16 7 16 7 16 C 7 16 5 16 5 16 C 5 16 2 16 2 16 C 2 16 2 25 2 25 C 2 25 5 25 5 25 C 5 25 5 32 5 32 C 5 32 7 32 7 32 C 7 32 7 25 7 25 C 7 25 10 25 10 25 C 10 25 10 16 10 16 Z M 6 12 C 2.69 12 0 9.31 0 6 C 0 2.69 2.69 0 6 0 C 9.31 0 12 2.69 12 6 C 12 9.31 9.31 12 6 12 Z M 6 2 C 3.79 2 2 3.79 2 6 C 2 8.21 3.79 10 6 10 C 8.21 10 10 8.21 10 6 C 10 3.79 8.21 2 6 2 Z" />
</svg>