<?xml version="1.0" encoding="utf-8"?>
<!-- Generator: Avocode 2.5.2 - http://avocode.com -->
<svg height="18" width="6" xmlns:xlink="http://www.w3.org/1999/xlink" xmlns="http://www.w3.org/2000/svg" viewBox="0 0 12 36">
    <path fill="#000000" fill-rule="evenodd" d="M 11 29 C 11 29 9 29 9 29 C 9 29 9 35 9 35 C 9 35.55 8.55 36 8 36 C 8 36 4 36 4 36 C 3.45 36 3 35.55 3 35 C 3 35 3 29 3 29 C 3 29 1 29 1 29 C 0.45 29 0 28.55 0 28 C 0 28 0 17 0 17 C 0 16.45 0.45 16 1 16 C 1 16 4 16 4 16 C 4 16 8 16 8 16 C 8 16 11 16 11 16 C 11.55 16 12 16.45 12 17 C 12 17 12 28 12 28 C 12 28.55 11.55 29 11 29 Z M 6 12 C 2.69 12 0 9.31 0 6 C 0 2.69 2.69 0 6 0 C 9.31 0 12 2.69 12 6 C 12 9.31 9.31 12 6 12 Z" />
</svg>