<?xml version="1.0" encoding="utf-8"?>
<!-- Generator: Avocode 2.4.5 - http://avocode.com -->
<svg height="10" width="10" xmlns:xlink="http://www.w3.org/1999/xlink" xmlns="http://www.w3.org/2000/svg" viewBox="0 0 10 10">
    <path fill="#6d8099" fill-rule="evenodd" d="M 9 6 C 9 6 6 6 6 6 C 6 6 6 9 6 9 C 6 9.55 5.55 10 5 10 C 4.45 10 4 9.55 4 9 C 4 9 4 6 4 6 C 4 6 1 6 1 6 C 0.45 6 0 5.55 0 5 C 0 4.45 0.45 4 1 4 C 1 4 4 4 4 4 C 4 4 4 1 4 1 C 4 0.45 4.45 0 5 0 C 5.55 0 6 0.45 6 1 C 6 1 6 4 6 4 C 6 4 9 4 9 4 C 9.55 4 10 4.45 10 5 C 10 5.55 9.55 6 9 6 Z" />
</svg>