<?xml version="1.0" encoding="utf-8"?>
<!-- Generator: Avocode 2.4.5 - http://avocode.com -->
<svg height="26" width="26" xmlns:xlink="http://www.w3.org/1999/xlink" xmlns="http://www.w3.org/2000/svg" viewBox="0 0 26 26">
    <path stroke-width="2" stroke="#ffffff" fill="#ffffff" fill-rule="evenodd" d="M 13 2 C 19.08 2 24 6.93 24 13 C 24 19.07 19.08 24 13 24 C 6.92 24 2 19.07 2 13 C 2 6.93 6.92 2 13 2 Z" />
    <path fill="#6d8099" fill-rule="evenodd" d="M 17 14 C 17 14 14 14 14 14 C 14 14 14 17 14 17 C 14 17.55 13.55 18 13 18 C 12.45 18 12 17.55 12 17 C 12 17 12 14 12 14 C 12 14 9 14 9 14 C 8.45 14 8 13.55 8 13 C 8 12.45 8.45 12 9 12 C 9 12 12 12 12 12 C 12 12 12 9 12 9 C 12 8.45 12.45 8 13 8 C 13.55 8 14 8.45 14 9 C 14 9 14 12 14 12 C 14 12 17 12 17 12 C 17.55 12 18 12.45 18 13 C 18 13.55 17.55 14 17 14 Z" />
</svg>