<?xml version="1.0" encoding="utf-8"?>
<!-- Generator: Avocode 2.4.5 - http://avocode.com -->
<svg height="24" width="24" xmlns:xlink="http://www.w3.org/1999/xlink" xmlns="http://www.w3.org/2000/svg" viewBox="0 0 24 24">
    <path stroke-width="2" stroke="#ffffff" fill="#ffffff" opacity="0.6" fill-rule="evenodd" d="M 12 2 C 17.52 2 22 6.48 22 12 C 22 17.52 17.52 22 12 22 C 6.48 22 2 17.52 2 12 C 2 6.48 6.48 2 12 2 Z" />
    <path fill="#6d8099" fill-rule="evenodd" d="M 9 11 C 9 11 15 11 15 11 C 15.55 11 16 11.45 16 12 C 16 12.55 15.55 13 15 13 C 15 13 9 13 9 13 C 8.45 13 8 12.55 8 12 C 8 11.45 8.45 11 9 11 Z" />
</svg>