<?xml version="1.0" encoding="utf-8"?>
<!-- Generator: Avocode 2.4.5 - http://avocode.com -->
<svg height="8" width="28" xmlns:xlink="http://www.w3.org/1999/xlink" xmlns="http://www.w3.org/2000/svg" viewBox="0 0 28 8">
    <path stroke-width="1" stroke="#bbcde6" fill="none" fill-rule="evenodd" d="M 0 0 C 0 0 8 4 8 4 C 8 4 0 8 0 8 C 0 8 1.5 4 1.5 4 C 1.5 4 0 0 0 0 Z" />
    <path stroke-width="1" stroke="#bbcde6" fill="none" fill-rule="evenodd" d="M 10 0 C 10 0 18 4 18 4 C 18 4 10 8 10 8 C 10 8 11.5 4 11.5 4 C 11.5 4 10 0 10 0 Z" />
    <path stroke-width="1" stroke="#bbcde6" fill="none" fill-rule="evenodd" d="M 20 0 C 20 0 28 4 28 4 C 28 4 20 8 20 8 C 20 8 21.5 4 21.5 4 C 21.5 4 20 0 20 0 Z" />
</svg>