<?xml version="1.0" encoding="utf-8"?>
<!-- Generator: Avocode 2.4.5 - http://avocode.com -->
<svg height="8" width="28" xmlns:xlink="http://www.w3.org/1999/xlink" xmlns="http://www.w3.org/2000/svg" viewBox="0 0 28 8">
    <path stroke-width="1" stroke="#bbcde6" fill="none" fill-rule="evenodd" d="M 28 8 C 28 8 20 4 20 4 C 20 4 28 0 28 0 C 28 0 26.5 4 26.5 4 C 26.5 4 28 8 28 8 Z M 10 4 C 10 4 18 0 18 0 C 18 0 16.5 4 16.5 4 C 16.5 4 18 8 18 8 C 18 8 10 4 10 4 Z M 0 4 C 0 4 8 0 8 0 C 8 0 6.5 4 6.5 4 C 6.5 4 8 8 8 8 C 8 8 0 4 0 4 Z" />
</svg>